<svg viewBox="0 0 100 100" xmlns="http://www.w3.org/2000/svg" xmlns:xlink="http://www.w3.org/1999/xlink" width="100.000000" height="100.000000" fill="none" customFrame="#000000">
	<g id="Group 124">
		<circle id="Ellipse 18" cx="50" cy="50" r="50" fill="rgb(255,255,255)" />
		<g id="Group 200">
			<path id="Vector" d="M40.4628 8.10887C38.6009 3.31263 34.4174 0.294456 29.2803 0.0362408C28.8069 0.00906019 28.3244 0 27.8408 0C20.1555 0 12.7386 3.2209 7.49165 8.83595C2.17332 14.5269 -0.463197 21.963 0.0668239 29.7741C1.01361 43.6543 12.2052 54.7621 26.099 55.6115C26.6857 55.6477 27.27 55.6658 27.8465 55.6658C28.2621 55.6658 28.6732 55.6556 29.0776 55.6375C34.2203 55.411 38.576 52.3101 40.4436 47.5456C42.4062 42.5376 41.2454 37.0188 37.4129 33.1422C37.4129 33.1422 37.4129 33.1422 37.4118 33.141C35.7458 31.4592 34.901 29.671 34.901 27.8272C34.901 25.9892 35.7458 24.2043 37.4129 22.5214C41.242 18.6515 42.4108 13.1293 40.4628 8.10887ZM32.5816 27.8272C32.5816 30.2701 33.6824 32.6722 35.7651 34.7741C38.9418 37.9883 39.9067 42.558 38.2838 46.6985C36.7323 50.6567 33.2532 53.1324 28.9734 53.3204C28.0866 53.3611 27.1647 53.3532 26.2417 53.2966C13.5065 52.5174 3.24922 42.3371 2.3817 29.6166C1.89472 22.4534 4.31152 15.6356 9.18591 10.4192C13.9957 5.2719 20.7954 2.31941 27.8408 2.31941C28.2791 2.31941 28.7163 2.3262 29.1557 2.35225C33.3608 2.5629 36.7798 5.02954 38.2997 8.94807C39.9135 13.1033 38.9418 17.6798 35.7651 20.8894C33.6824 22.9914 32.5816 25.3901 32.5816 27.8272Z" fill="rgb(158.715,206.191,157.611)" fill-rule="nonzero" transform="matrix(0.877774,0.479075,-0.479075,0.877774,38.8582,11.7764)" />
			<path id="Vector" d="M4.60144 0C2.06459 0 0 2.06459 0 4.60144C0 7.1383 2.06459 9.20176 4.60144 9.20176C7.1383 9.20176 9.20176 7.1383 9.20176 4.60144C9.20176 2.06459 7.1383 0 4.60144 0ZM4.60144 6.88235C3.34321 6.88235 2.31941 5.85968 2.31941 4.60144C2.31941 3.34321 3.34321 2.31941 4.60144 2.31941C5.85968 2.31941 6.88235 3.34321 6.88235 4.60144C6.88235 5.85968 5.85968 6.88235 4.60144 6.88235Z" fill="rgb(158.715,206.191,157.611)" fill-rule="nonzero" transform="matrix(0.877774,0.479075,-0.479075,0.877774,57.3513,26.4038)" />
			<path id="Vector" d="M4.60144 0C2.06459 0 0 2.06346 0 4.60031C0 7.13717 2.06459 9.20176 4.60144 9.20176C7.1383 9.20176 9.20176 7.13717 9.20176 4.60031C9.20176 2.06346 7.1383 0 4.60144 0ZM4.60144 6.88235C3.34321 6.88235 2.31941 5.85855 2.31941 4.60031C2.31941 3.34208 3.34321 2.31941 4.60144 2.31941C5.85968 2.31941 6.88235 3.34208 6.88235 4.60031C6.88235 5.85855 5.85968 6.88235 4.60144 6.88235Z" fill="rgb(158.715,206.191,157.611)" fill-rule="nonzero" transform="matrix(0.877774,0.479075,-0.479075,0.877774,38.9067,60.1982)" />
			<path id="Vector" d="M9.20176 4.60144C9.20176 2.06459 7.1383 0 4.60144 0C2.06459 0 0 2.06459 0 4.60144C0 7.1383 2.06459 9.20176 4.60144 9.20176C7.1383 9.20176 9.20176 7.1383 9.20176 4.60144ZM4.60144 6.88235C3.34321 6.88235 2.31941 5.85968 2.31941 4.60144C2.31941 3.34321 3.34321 2.31941 4.60144 2.31941C5.85968 2.31941 6.88235 3.34321 6.88235 4.60144C6.88235 5.85968 5.85968 6.88235 4.60144 6.88235Z" fill="rgb(158.715,206.191,157.611)" fill-rule="nonzero" transform="matrix(0.877774,0.479075,-0.479075,0.877774,31.2327,34.0781)" />
			<path id="Vector" d="M1.34459 1.34544C-0.448196 3.14049 -0.448196 6.059 1.34459 7.85179C2.21323 8.72157 3.36954 9.19949 4.59833 9.19949C5.82712 9.19949 6.98229 8.72043 7.85094 7.85179C8.71959 6.98314 9.19864 5.82797 9.19864 4.59918C9.19864 3.37039 8.72072 2.21408 7.85094 1.34544C6.05702 -0.448479 3.13851 -0.448479 1.34459 1.34544ZM6.21104 6.21189C5.34806 7.07488 3.84747 7.07488 2.98448 6.21189C2.09545 5.32286 2.09545 3.8755 2.98448 2.98533C3.87465 2.09743 5.32088 2.09743 6.21104 2.98533C6.64254 3.41682 6.87923 3.98988 6.87923 4.59918C6.87923 5.20848 6.64254 5.7804 6.21104 6.21189Z" fill="rgb(158.715,206.191,157.611)" fill-rule="nonzero" transform="matrix(0.877774,0.479075,-0.479075,0.877774,29.6619,48.731)" />
			<path id="Vector" d="M1.34459 1.30467C-0.448196 3.09745 -0.448196 6.01597 1.34459 7.81102C2.24155 8.70798 3.42051 9.15646 4.59833 9.15646C5.77616 9.15646 6.95398 8.70798 7.85094 7.81102C8.72072 6.94237 9.19864 5.78606 9.19864 4.55728C9.19864 3.32849 8.72072 2.17331 7.85094 1.30467C6.11365 -0.434889 3.08188 -0.434889 1.34459 1.30467ZM6.21104 6.17112C5.32088 7.06129 3.87465 7.06129 2.98448 6.17112C2.09545 5.28096 2.09545 3.83359 2.98448 2.94456C3.41598 2.51307 3.98903 2.27637 4.59833 2.27637C5.20763 2.27637 5.77955 2.51307 6.21104 2.94456C6.64254 3.37605 6.87923 3.94798 6.87923 4.55728C6.87923 5.16657 6.64254 5.73963 6.21104 6.17112Z" fill="rgb(158.715,206.191,157.611)" fill-rule="nonzero" transform="matrix(0.877774,0.479075,-0.479075,0.877774,42.6838,24.8721)" />
			<path id="Vector" d="M9.97005 18.038L8.69504 12.287C9.44867 11.4216 9.92135 10.3051 9.92135 9.07067C9.92135 6.76938 6.6325 1.52579 5.97337 0.498594C5.54755 -0.16733 4.44673 -0.165065 4.0209 0.498594C3.36177 1.52693 0.074057 6.76938 0.074057 9.07067C0.074057 10.3054 0.546673 11.4221 1.3003 12.2875L0.0253585 18.038C0.0147411 18.0863 0.0306672 18.134 0.0262079 18.1824C0.0202621 18.2438 -0.00352089 18.3017 0.000442978 18.3642L1.72075 45.1597C1.84532 46.8664 3.28476 48.2039 4.99714 48.2039C6.71065 48.2039 8.15009 46.8664 8.2758 45.1495L9.99497 18.3642C9.99893 18.3017 9.97515 18.2438 9.9692 18.1824C9.96474 18.134 9.98067 18.0863 9.97005 18.038ZM5.96205 44.9898C5.92468 45.4915 5.50111 45.8845 4.99714 45.8845C4.49317 45.8845 4.07073 45.4915 4.03449 45L2.3946 19.4491L7.60081 19.4491L5.96205 44.9898ZM2.60298 17.1297L3.36468 13.695C3.87813 13.8771 4.4221 13.9949 4.99714 13.9949C5.57253 13.9949 6.11692 13.877 6.63066 13.6948L7.39243 17.1297L2.60298 17.1297ZM4.99714 11.6755C3.5611 11.6755 2.39347 10.5067 2.39347 9.07067C2.39347 8.12048 3.71059 5.5304 4.99714 3.34349C6.28482 5.5304 7.60194 8.11935 7.60194 9.07067C7.60194 10.5067 6.43318 11.6755 4.99714 11.6755Z" fill="rgb(158.715,206.191,157.611)" fill-rule="nonzero" transform="matrix(0.877774,0.479075,-0.479075,0.877774,75.4829,33.6367)" />
		</g>
	</g>
</svg>
