<svg viewBox="0 0 100 100" xmlns="http://www.w3.org/2000/svg" xmlns:xlink="http://www.w3.org/1999/xlink" width="100.000000" height="100.000000" fill="none" customFrame="#000000">
	<g id="Group 125">
		<circle id="Ellipse 16" cx="50" cy="50" r="50" fill="rgb(255,255,255)" />
		<g id="Group 11">
			<path id="Vector" d="M77.5619 22.4383L77.5619 77.5619L22.4383 77.5619L22.4383 22.4383L77.5619 22.4383ZM77.5619 20.9092L22.4383 20.9092C21.5973 20.9092 20.9092 21.5973 20.9092 22.4383L20.9092 77.5619C20.9092 78.4029 21.5973 79.091 22.4383 79.091L77.5619 79.091C78.4029 79.091 79.091 78.4029 79.091 77.5619L79.091 22.4383C79.091 21.5973 78.4029 20.9092 77.5619 20.9092Z" fill="rgb(244,151,110)" fill-rule="nonzero" />
			<path id="Vector" d="M50.8028 37.8056C50.8028 37.1939 50.5735 36.6587 50.1912 36.2765C50.5735 35.8942 50.8028 35.359 50.8028 34.7474C50.8028 33.677 50.1147 32.836 49.1973 32.5302C48.4327 28.9369 45.2981 26.3374 41.5518 26.3374L35.5119 26.3374C31.7657 26.3374 28.631 29.0133 27.9429 32.5302C27.0255 32.836 26.3374 33.677 26.3374 34.7474C26.3374 35.359 26.5668 35.8942 26.949 36.2765C26.5668 36.6587 26.3374 37.1939 26.3374 37.8056C26.3374 38.8759 27.0255 39.7169 27.9429 40.0227C28.631 43.6161 31.8421 46.2156 35.5119 46.2156L41.5518 46.2156C45.2216 46.2156 48.4327 43.5396 49.1208 40.0227C50.1147 39.7169 50.8028 38.7995 50.8028 37.8056ZM35.5119 27.8665L41.5518 27.8665C44.3806 27.8665 46.8272 29.7779 47.5153 32.4538L47.2095 32.4538L47.0566 32.3008C46.6743 31.9186 46.1391 31.6892 45.6039 31.6892L45.1452 31.6892C44.61 31.6892 44.0748 31.9186 43.6926 32.3008C43.6161 32.3773 43.4632 32.4538 43.3103 32.4538L42.8516 32.4538C42.6987 32.4538 42.5457 32.3773 42.4693 32.3008C42.087 31.9186 41.5518 31.6892 41.0167 31.6892L40.5579 31.6892C40.0227 31.6892 39.4876 31.9186 39.1053 32.3008C39.0288 32.3773 38.8759 32.4538 38.723 32.4538L38.2643 32.4538C38.1114 32.4538 37.9585 32.3773 37.882 32.3008C37.4997 31.9186 36.9646 31.6892 36.4294 31.6892L35.9707 31.6892C35.4355 31.6892 34.9003 31.9186 34.518 32.3008C34.4416 32.3773 34.2887 32.4538 34.1358 32.4538L33.677 32.4538C33.5241 32.4538 33.3712 32.3773 33.2948 32.3008C32.9125 31.9186 32.3773 31.6892 31.8421 31.6892L31.3834 31.6892C30.8482 31.6892 30.313 31.9186 29.9308 32.3008L29.7779 32.4538L29.472 32.4538C30.2366 29.7779 32.6831 27.8665 35.5119 27.8665ZM28.631 33.9828L30.4659 33.9828L31.0776 33.3712C31.154 33.2948 31.3069 33.2183 31.4599 33.2183L31.9186 33.2183C32.0715 33.2183 32.2244 33.2948 32.3008 33.3712C32.6831 33.7535 33.2183 33.9828 33.7535 33.9828L34.2122 33.9828C34.7474 33.9828 35.2826 33.7535 35.6648 33.3712C35.7413 33.2948 35.8942 33.2183 36.0471 33.2183L36.5058 33.2183C36.6588 33.2183 36.8117 33.2948 36.8881 33.3712C37.2704 33.7535 37.8056 33.9828 38.3407 33.9828L38.7995 33.9828C39.3347 33.9828 39.8698 33.7535 40.2521 33.3712C40.3286 33.2948 40.4815 33.2183 40.6344 33.2183L41.0931 33.2183C41.246 33.2183 41.3989 33.2948 41.4754 33.3712C41.8577 33.7535 42.3928 33.9828 42.928 33.9828L43.3867 33.9828C43.9219 33.9828 44.4571 33.7535 44.8394 33.3712C44.9158 33.2948 45.0687 33.2183 45.2216 33.2183L45.6804 33.2183C45.8333 33.2183 45.9862 33.2948 46.0626 33.3712L46.6743 33.9828L48.5092 33.9828C48.9679 33.9828 49.2737 34.2887 49.2737 34.7474C49.2737 35.2061 48.9679 35.5119 48.5092 35.5119L28.631 35.5119C28.1723 35.5119 27.8665 35.2061 27.8665 34.7474C27.8665 34.2887 28.1723 33.9828 28.631 33.9828ZM28.631 37.041L48.5092 37.041C48.9679 37.041 49.2737 37.3468 49.2737 37.8056C49.2737 38.2643 48.9679 38.5701 48.5092 38.5701L28.631 38.5701C28.1723 38.5701 27.8665 38.2643 27.8665 37.8056C27.8665 37.3468 28.1723 37.041 28.631 37.041ZM41.5518 44.6865L35.5119 44.6865C32.6831 44.6865 30.2366 42.7751 29.5485 40.0992L47.5917 40.0992C46.8272 42.7751 44.3806 44.6865 41.5518 44.6865Z" fill="rgb(244,151,110)" fill-rule="nonzero" />
			<path id="Vector" d="M72.0571 60.0536C71.369 56.4603 68.1579 53.8608 64.4881 53.8608L58.4482 53.8608C54.7784 53.8608 51.5673 56.5367 50.8792 60.0536C49.9618 60.3595 49.2737 61.2005 49.2737 62.2708C49.2737 62.8825 49.503 63.4176 49.8853 63.7999C49.503 64.1822 49.2737 64.7174 49.2737 65.329C49.2737 66.3994 49.9618 67.2404 50.8792 67.5462C51.5673 71.1395 54.7784 73.739 58.4482 73.739L64.4881 73.739C68.1579 73.739 71.369 71.0631 72.0571 67.5462C72.9746 67.2404 73.6626 66.3994 73.6626 65.329C73.6626 64.7174 73.4333 64.1822 73.051 63.7999C73.4333 63.4176 73.6626 62.8825 73.6626 62.2708C73.7391 61.2005 73.051 60.3595 72.0571 60.0536ZM58.4482 55.3899L64.4881 55.3899C67.3169 55.3899 69.7635 57.3013 70.4516 59.9772L70.1457 59.9772L69.9928 59.8243C69.6106 59.442 69.0754 59.2127 68.5402 59.2127L68.0815 59.2127C67.5463 59.2127 67.0111 59.442 66.6288 59.8243C66.5524 59.9007 66.3995 59.9772 66.2466 59.9772L65.7878 59.9772C65.6349 59.9772 65.482 59.9007 65.4056 59.8243C65.0233 59.442 64.4881 59.2127 63.9529 59.2127L63.4942 59.2127C62.959 59.2127 62.4238 59.442 62.0416 59.8243C61.9651 59.9007 61.8122 59.9772 61.6593 59.9772L61.2006 59.9772C61.0477 59.9772 60.8948 59.9007 60.8183 59.8243C60.436 59.442 59.9008 59.2127 59.3657 59.2127L58.9069 59.2127C58.3718 59.2127 57.8366 59.442 57.4543 59.8243C57.3779 59.9007 57.2249 59.9772 57.072 59.9772L56.6133 59.9772C56.4604 59.9772 56.3075 59.9007 56.231 59.8243C55.8488 59.442 55.3136 59.2127 54.7784 59.2127L54.3197 59.2127C53.7845 59.2127 53.2493 59.442 52.867 59.8243L52.7141 59.9772L52.4083 59.9772C53.1729 57.3013 55.6194 55.3899 58.4482 55.3899ZM51.5673 61.5063L53.4022 61.5063L54.0139 60.8946C54.0903 60.8182 54.2432 60.7417 54.3961 60.7417L54.8549 60.7417C55.0078 60.7417 55.1607 60.8182 55.2371 60.8946C55.6194 61.2769 56.1546 61.5063 56.6898 61.5063L57.1485 61.5063C57.6837 61.5063 58.2188 61.2769 58.6011 60.8946C58.6776 60.8182 58.8305 60.7417 58.9834 60.7417L59.4421 60.7417C59.595 60.7417 59.7479 60.8182 59.8244 60.8946C60.2067 61.2769 60.7418 61.5063 61.277 61.5063L61.7358 61.5063C62.2709 61.5063 62.8061 61.2769 63.1884 60.8946C63.2648 60.8182 63.4178 60.7417 63.5707 60.7417L64.0294 60.7417C64.1823 60.7417 64.3352 60.8182 64.4117 60.8946C64.7939 61.2769 65.3291 61.5063 65.8643 61.5063L66.323 61.5063C66.8582 61.5063 67.3934 61.2769 67.7757 60.8946C67.8521 60.8182 68.005 60.7417 68.1579 60.7417L68.6167 60.7417C68.7696 60.7417 68.9225 60.8182 68.9989 60.8946L69.6106 61.5063L71.4455 61.5063C71.9042 61.5063 72.21 61.8121 72.21 62.2708C72.21 62.7296 71.9042 63.0354 71.4455 63.0354L51.5673 63.0354C51.1086 63.0354 50.8028 62.7296 50.8028 62.2708C50.8028 61.8121 51.1086 61.5063 51.5673 61.5063ZM64.4881 72.2099L58.4482 72.2099C55.6194 72.2099 53.1729 70.2985 52.4848 67.6226L70.528 67.6226C69.7635 70.2985 67.3169 72.2099 64.4881 72.2099ZM71.4455 66.0936L51.5673 66.0936C51.1086 66.0936 50.8028 65.7877 50.8028 65.329C50.8028 64.8703 51.1086 64.5645 51.5673 64.5645L71.4455 64.5645C71.9042 64.5645 72.21 64.8703 72.21 65.329C72.21 65.7877 71.8277 66.0936 71.4455 66.0936Z" fill="rgb(244,151,110)" fill-rule="nonzero" />
			<path id="Vector" d="M39.9461 50.879C39.6403 49.9615 38.7993 49.2734 37.7289 49.2734C37.1173 49.2734 36.5821 49.5028 36.1998 49.8851C35.8175 49.5028 35.2824 49.2734 34.6707 49.2734C33.6004 49.2734 32.7594 49.9615 32.4536 50.879C28.8602 51.5671 26.2607 54.7782 26.2607 58.448L26.2607 64.4879C26.2607 68.1577 28.9366 71.3688 32.4536 72.0569C32.7594 72.9743 33.6004 73.6624 34.6707 73.6624C35.2824 73.6624 35.8175 73.433 36.1998 73.0508C36.5821 73.433 37.1173 73.6624 37.7289 73.6624C38.7993 73.6624 39.6403 72.9743 39.9461 72.0569C43.5394 71.3688 46.1389 68.1577 46.1389 64.4879L46.1389 58.448C46.2153 54.7782 43.5394 51.5671 39.9461 50.879ZM27.8663 64.4879L27.8663 58.448C27.8663 55.6192 29.7776 53.1726 32.4536 52.4845L32.4536 52.7903L32.3006 52.9433C31.9184 53.3255 31.689 53.8607 31.689 54.3959L31.689 54.8546C31.689 55.3898 31.9184 55.925 32.3006 56.3072C32.3771 56.3837 32.4536 56.5366 32.4536 56.6895L32.4536 57.1482C32.4536 57.3012 32.3771 57.4541 32.3006 57.5305C31.9184 57.9128 31.689 58.448 31.689 58.9832L31.689 59.4419C31.689 59.9771 31.9184 60.5122 32.3006 60.8945C32.3771 60.971 32.4536 61.1239 32.4536 61.2768L32.4536 61.7355C32.4536 61.8884 32.3771 62.0413 32.3006 62.1178C31.9184 62.5001 31.689 63.0352 31.689 63.5704L31.689 64.0291C31.689 64.5643 31.9184 65.0995 32.3006 65.4818C32.3771 65.5582 32.4536 65.7111 32.4536 65.8641L32.4536 66.3228C32.4536 66.4757 32.3771 66.6286 32.3006 66.705C31.9184 67.0873 31.689 67.6225 31.689 68.1577L31.689 68.6164C31.689 69.1516 31.9184 69.6868 32.3006 70.069L32.4536 70.222L32.4536 70.5278C29.7776 69.7632 27.8663 67.3167 27.8663 64.4879ZM34.7472 72.2098C34.2885 72.2098 33.9826 71.9039 33.9826 71.4452L33.9826 69.6103L33.371 68.9987C33.2945 68.9222 33.2181 68.7693 33.2181 68.6164L33.2181 68.1577C33.2181 68.0048 33.2945 67.8519 33.371 67.7754C33.7533 67.3931 33.9826 66.858 33.9826 66.3228L33.9826 65.8641C33.9826 65.3289 33.7533 64.7937 33.371 64.4114C33.2945 64.335 33.2181 64.1821 33.2181 64.0291L33.2181 63.5704C33.2181 63.4175 33.2945 63.2646 33.371 63.1881C33.7533 62.8059 33.9826 62.2707 33.9826 61.7355L33.9826 61.2768C33.9826 60.7416 33.7533 60.2064 33.371 59.8242C33.2945 59.7477 33.2181 59.5948 33.2181 59.4419L33.2181 58.9832C33.2181 58.8302 33.2945 58.6773 33.371 58.6009C33.7533 58.2186 33.9826 57.6834 33.9826 57.1482L33.9826 56.6895C33.9826 56.1543 33.7533 55.6192 33.371 55.2369C33.2945 55.1604 33.2181 55.0075 33.2181 54.8546L33.2181 54.3959C33.2181 54.243 33.2945 54.0901 33.371 54.0136L33.9826 53.402L33.9826 51.5671C33.9826 51.1083 34.2885 50.8025 34.7472 50.8025C35.2059 50.8025 35.5117 51.1083 35.5117 51.5671L35.5117 71.4452C35.5117 71.8275 35.1295 72.2098 34.7472 72.2098ZM38.5699 71.4452C38.5699 71.9039 38.2641 72.2098 37.8054 72.2098C37.3466 72.2098 37.0408 71.9039 37.0408 71.4452L37.0408 51.5671C37.0408 51.1083 37.3466 50.8025 37.8054 50.8025C38.2641 50.8025 38.5699 51.1083 38.5699 51.5671L38.5699 71.4452ZM44.6863 64.4879C44.6863 67.3167 42.7749 69.7632 40.099 70.4513L40.099 52.4845C42.7749 53.1726 44.6863 55.6192 44.6863 58.448L44.6863 64.4879Z" fill="rgb(244,151,110)" fill-rule="nonzero" />
			<path id="Vector" d="M67.4695 27.9429C67.1637 27.0255 66.3227 26.3374 65.2523 26.3374C64.6407 26.3374 64.1055 26.5668 63.7233 26.949C63.341 26.5668 62.8058 26.3374 62.1942 26.3374C61.1238 26.3374 60.2828 27.0255 59.977 27.9429C56.3836 28.631 53.7842 31.8421 53.7842 35.5119L53.7842 41.5518C53.7842 45.2216 56.4601 48.4327 59.977 49.1208C60.2828 50.0383 61.1238 50.7264 62.1942 50.7264C62.8058 50.7264 63.341 50.497 63.7233 50.1147C64.1055 50.497 64.6407 50.7264 65.2523 50.7264C66.3227 50.7264 67.1637 50.0383 67.4695 49.1208C71.0629 48.4327 73.6623 45.2216 73.6623 41.5518L73.6623 35.5119C73.7388 31.8421 71.0629 28.631 67.4695 27.9429ZM55.3897 41.5518L55.3897 35.5119C55.3897 32.6831 57.3011 30.2366 59.977 29.5485L59.977 47.5917C57.3011 46.8272 55.3897 44.3806 55.3897 41.5518ZM62.2706 49.2737C61.8119 49.2737 61.5061 48.9679 61.5061 48.5092L61.5061 28.631C61.5061 28.1723 61.8119 27.8665 62.2706 27.8665C62.7293 27.8665 63.0352 28.1723 63.0352 28.631L63.0352 48.5092C63.0352 48.8915 62.6529 49.2737 62.2706 49.2737ZM66.0933 46.6743L66.0933 48.5092C66.0933 48.9679 65.7875 49.2737 65.3288 49.2737C64.8701 49.2737 64.5643 48.9679 64.5643 48.5092L64.5643 28.631C64.5643 28.1723 64.8701 27.8665 65.3288 27.8665C65.7875 27.8665 66.0933 28.1723 66.0933 28.631L66.0933 30.4659L66.705 31.0776C66.7814 31.154 66.8579 31.3069 66.8579 31.4598L66.8579 31.9186C66.8579 32.0715 66.7814 32.2244 66.705 32.3008C66.3227 32.6831 66.0933 33.2183 66.0933 33.7535L66.0933 34.2122C66.0933 34.7474 66.3227 35.2826 66.705 35.6648C66.7814 35.7413 66.8579 35.8942 66.8579 36.0471L66.8579 36.5058C66.8579 36.6587 66.7814 36.8117 66.705 36.8881C66.3227 37.2704 66.0933 37.8056 66.0933 38.3407L66.0933 38.7995C66.0933 39.3347 66.3227 39.8698 66.705 40.2521C66.7814 40.3286 66.8579 40.4815 66.8579 40.6344L66.8579 41.0931C66.8579 41.246 66.7814 41.3989 66.705 41.4754C66.3227 41.8577 66.0933 42.3928 66.0933 42.928L66.0933 43.3867C66.0933 43.9219 66.3227 44.4571 66.705 44.8394C66.7814 44.9158 66.8579 45.0687 66.8579 45.2216L66.8579 45.6804C66.8579 45.8333 66.7814 45.9862 66.705 46.0626L66.0933 46.6743ZM72.2097 41.5518C72.2097 44.3806 70.2983 46.8272 67.6224 47.5153L67.6224 47.2095L67.7753 47.0565C68.1576 46.6743 68.387 46.1391 68.387 45.6039L68.387 45.1452C68.387 44.61 68.1576 44.0748 67.7753 43.6926C67.6989 43.6161 67.6224 43.4632 67.6224 43.3103L67.6224 42.8516C67.6224 42.6987 67.6989 42.5457 67.7753 42.4693C68.1576 42.087 68.387 41.5518 68.387 41.0167L68.387 40.5579C68.387 40.0227 68.1576 39.4876 67.7753 39.1053C67.6989 39.0288 67.6224 38.8759 67.6224 38.723L67.6224 38.2643C67.6224 38.1114 67.6989 37.9585 67.7753 37.882C68.1576 37.4997 68.387 36.9646 68.387 36.4294L68.387 35.9707C68.387 35.4355 68.1576 34.9003 67.7753 34.518C67.6989 34.4416 67.6224 34.2887 67.6224 34.1358L67.6224 33.677C67.6224 33.5241 67.6989 33.3712 67.7753 33.2948C68.1576 32.9125 68.387 32.3773 68.387 31.8421L68.387 31.3834C68.387 30.8482 68.1576 30.313 67.7753 29.9308L67.6224 29.7779L67.6224 29.472C70.2983 30.1601 72.2097 32.6067 72.2097 35.4355L72.2097 41.5518Z" fill="rgb(244,151,110)" fill-rule="nonzero" />
		</g>
	</g>
</svg>
