<svg viewBox="0 0 16 10.1055" xmlns="http://www.w3.org/2000/svg" xmlns:xlink="http://www.w3.org/1999/xlink" width="16.000000" height="10.105469" fill="none" customFrame="#000000">
	<path id="Vector" d="M15.3074 4.34758L2.36462 4.34758L5.45295 1.20355C5.7235 0.928296 5.7235 0.481779 5.45295 0.206564C5.18239 -0.0688546 4.74375 -0.0688546 4.4736 0.206564L0.202918 4.55406C-0.0676393 4.82931 -0.0676393 5.27587 0.202918 5.55105L4.4736 9.89874C4.60883 10.0365 4.78607 10.1053 4.96327 10.1053C5.14047 10.1053 5.31771 10.0365 5.45295 9.89874C5.7235 9.62349 5.7235 9.17697 5.45295 8.90179L2.36462 5.75761L15.3074 5.75761C15.6898 5.75761 16 5.44192 16 5.05257C16 4.66322 15.6899 4.34758 15.3074 4.34758Z" fill="rgb(0,0,0)" fill-rule="evenodd" transform="matrix(-1,0,0,1,16,0)" />
</svg>
