<svg viewBox="0 0 31.6594 30.3701" xmlns="http://www.w3.org/2000/svg" xmlns:xlink="http://www.w3.org/1999/xlink" width="31.659424" height="30.370117" fill="none" customFrame="#000000">
	<g id="Group 108">
		<g id="Group">
			<path id="Vector" d="M23.3253 20.8161C22.5122 26.2574 19.5309 29.674 15.601 29.7373C14.7201 30.1169 13.7715 30.37 12.8229 30.37C9.0285 30.37 5.23409 27.333 2.32053 22.0815C-1.6094 14.9952 0.626592 4.17588 0.69435 3.73298C0.762107 3.35335 1.23641 3.10027 1.64295 3.29008C1.91398 3.41663 5.84391 5.06167 9.84159 7.90885C11.2645 5.06167 13.0939 2.34102 14.8556 0.253083C14.9911 0.126542 15.1944 0 15.3977 0C15.601 0 15.8042 0.126542 15.9398 0.253083C17.0916 1.58177 18.7178 3.85952 20.073 6.26381C24.6127 3.4799 30.101 2.34102 30.7786 2.21448L30.8464 2.21448C30.9141 2.21448 31.6595 2.15121 31.6595 2.78392C31.6595 3.16354 31.5239 12.4011 26.9842 17.5893C25.7646 18.918 24.5449 19.9936 23.3253 20.8161Z" fill="rgb(232.757,212.406,198.284)" fill-rule="nonzero" />
			<path id="Vector" d="M23.3253 20.8161C22.5122 26.2574 19.5309 29.674 15.601 29.7373C14.7201 30.1169 13.7715 30.37 12.8229 30.37C9.0285 30.37 5.23409 27.333 2.32053 22.0815C-1.6094 14.9952 0.626592 4.17588 0.69435 3.73298C0.762107 3.35335 1.23641 3.10027 1.64295 3.29008C1.91398 3.41663 5.84391 5.06167 9.84159 7.90885C11.2645 5.06167 13.0939 2.34102 14.8556 0.253083C14.9911 0.126542 15.1944 0 15.3977 0C15.601 0 15.8042 0.126542 15.9398 0.253083C17.0916 1.58177 18.7178 3.85952 20.073 6.26381C24.6127 3.4799 30.101 2.34102 30.7786 2.21448L30.8464 2.21448C30.9141 2.21448 31.6595 2.15121 31.6595 2.78392C31.6595 3.16354 31.5239 12.4011 26.9842 17.5893C25.7646 18.918 24.5449 19.9936 23.3253 20.8161ZM25.9001 16.7668C28.3393 13.9829 29.4235 9.80698 29.8978 6.76998C28.5426 9.49063 26.3744 13.2869 23.5286 16.3871C23.5963 17.2097 23.5963 18.1587 23.5286 19.0445C24.3417 18.4118 25.087 17.6526 25.9001 16.7668ZM23.3253 14.6156C26.2389 11.0724 28.4071 6.76998 29.4912 4.42896C27.594 5.6311 24.6805 7.65577 21.9702 10.1233C22.58 11.5153 23.0543 13.1603 23.3253 14.6156ZM17.9047 21.5121C18.7178 15.6912 17.2949 8.47829 15.4655 2.78392L15.4655 2.72065C13.1617 9.87025 10.7902 22.0815 15.4655 28.0923C15.4655 28.029 17.2949 26.0043 17.9047 21.5121ZM3.4724 21.5121C6.04718 26.1941 9.29953 28.9148 12.4841 29.1046C10.5869 28.1555 9.29953 26.3839 8.48645 24.4225C8.28317 23.8531 4.21773 19.4874 1.50744 7.84558C1.16865 11.6418 1.16865 17.3362 3.4724 21.5121ZM8.14766 12.0215C5.97942 9.30081 3.81119 7.08633 2.38828 5.69438C3.06586 8.79465 4.55652 14.9952 7.40233 20.2467C6.99578 17.0199 7.26681 14.6156 8.14766 12.0215ZM4.75979 6.26381C5.91167 7.46596 7.26681 8.92119 8.62196 10.5662C8.82523 10.0601 9.0285 9.5539 9.23178 9.111C7.74111 7.90885 6.11494 6.95979 4.75979 6.26381ZM8.62196 17.2097C8.62196 21.3223 9.70608 27.0166 13.907 28.2821C9.63832 22.0815 11.5355 11.1989 13.636 4.1126C11.1967 7.65577 8.62196 12.9705 8.62196 17.2097ZM16.9561 28.2821C22.2412 26.7636 23.2575 17.5893 21.1571 11.7051C20.2085 9.111 18.7856 6.5169 17.2949 4.23915C19.3276 11.3255 21.1571 22.0815 16.9561 28.2821ZM21.4281 8.85792C23.3253 7.1496 25.358 5.6311 27.052 4.49223C25.1548 5.12494 22.7832 6.074 20.7505 7.33942C20.7505 7.46596 21.1571 8.16194 21.4281 8.85792Z" fill="rgb(0,0,0)" fill-rule="nonzero" />
		</g>
	</g>
</svg>
