<svg viewBox="0 0 24 24" xmlns="http://www.w3.org/2000/svg" xmlns:xlink="http://www.w3.org/1999/xlink" width="24.000000" height="24.000000" fill="none" customFrame="#000000">
	<rect id="phone" width="24.000000" height="24.000000" x="0.000000" y="0.000000" />
	<rect id="Rectangle 403" width="24.000000" height="24.000000" x="0.000000" y="0.000000" fill="rgb(217,217,217)" fill-opacity="0" />
	<g id="Group 6">
		<path id="Vector" d="M8.81739 20.9826C7.86087 20.9826 7 20.2174 7 19.1652L7 4.81739C7 3.86087 7.76522 3 8.81739 3L16.1826 3C17.1391 3 18 3.76522 18 4.81739L18 19.1652C18 20.1217 17.1391 20.9826 16.1826 20.9826L8.81739 20.9826Z" fill-rule="nonzero" stroke="rgb(0,0,0)" stroke-linecap="round" stroke-linejoin="round" stroke-width="1" />
		<path id="Vector" d="M8.72168 17.3477L16.2782 17.3477" stroke="rgb(0,0,0)" stroke-linecap="round" stroke-linejoin="round" stroke-width="1" />
		<path id="Vector" d="M12.3566 19.8347C12.7264 19.8347 13.0261 19.535 13.0261 19.1652C13.0261 18.7954 12.7264 18.4956 12.3566 18.4956C11.9868 18.4956 11.687 18.7954 11.687 19.1652C11.687 19.535 11.9868 19.8347 12.3566 19.8347Z" fill="rgb(0,0,0)" fill-rule="nonzero" />
	</g>
</svg>
