<svg viewBox="0 0 49.6626 34.3498" xmlns="http://www.w3.org/2000/svg" xmlns:xlink="http://www.w3.org/1999/xlink" width="49.662598" height="34.349792" fill="none" customFrame="#000000">
	<g id="Group 18">
		<g id="Group">
			<path id="Vector" d="M11.8363 28.9696C11.7536 28.804 11.588 28.6385 11.4225 28.473C11.0914 28.1419 10.7603 27.9763 10.3465 27.8108C10.0982 27.728 9.93261 27.728 9.6843 27.728C8.77382 27.728 7.94611 28.2247 7.53226 28.9696C7.28394 29.3834 7.20117 29.7973 7.20117 30.2112C7.20117 31.6183 8.27719 32.6943 9.6843 32.6943C11.0914 32.6943 12.1674 31.6183 12.1674 30.2112C12.1674 29.7973 12.0019 29.3834 11.8363 28.9696Z" fill-rule="nonzero" />
			<path id="Vector" d="M42.7096 28.9696C42.6269 28.804 42.4613 28.6385 42.2958 28.473C41.9647 28.1419 41.6336 27.9763 41.2198 27.8108C40.9714 27.728 40.8059 27.728 40.5576 27.728C39.6471 27.728 38.8194 28.2247 38.4055 28.9696C38.1572 29.3834 38.0745 29.7973 38.0745 30.2112C38.0745 31.6183 39.1505 32.6943 40.5576 32.6943C41.9647 32.6943 43.0407 31.6183 43.0407 30.2112C43.0407 29.7973 42.9579 29.3834 42.7096 28.9696Z" fill-rule="nonzero" />
			<path id="Vector" d="M41.3853 17.3818L47.0964 17.3818L44.6133 14.4849L41.3853 14.4849L41.3853 17.3818Z" fill-rule="nonzero" />
			<path id="Vector" d="M39.7301 18.2093L39.7301 13.657C39.7301 13.1603 40.0612 12.8292 40.5578 12.8292L43.2065 12.8292L41.7994 11.1738L34.7638 11.1738L34.7638 23.5895C34.7638 24.0861 34.4328 24.4172 33.9361 24.4172L1.65552 24.4172L1.65552 27.728L6.37345 27.728C6.45622 27.6452 6.45622 27.5624 6.539 27.5624C6.62177 27.4797 6.62177 27.3969 6.70454 27.3969C6.78731 27.3141 6.87008 27.3141 6.87008 27.2314C6.95285 27.1486 6.95285 27.1486 7.03562 27.0658C7.11839 26.9831 7.20116 26.9831 7.20116 26.9003C7.28393 26.8175 7.3667 26.8175 7.44947 26.7347C7.53225 26.652 7.61502 26.652 7.69779 26.652C7.78056 26.5692 7.86333 26.5692 7.9461 26.5692C8.02887 26.5692 8.11164 26.4864 8.19441 26.4864C8.27718 26.4864 8.35995 26.4037 8.44272 26.4037C8.5255 26.4037 8.60827 26.3209 8.60827 26.3209C8.69104 26.3209 8.85658 26.2381 8.93935 26.2381C9.02212 26.2381 9.02212 26.2381 9.10489 26.2381C9.27043 26.2381 9.43597 26.2381 9.60152 26.2381C9.76706 26.2381 9.9326 26.2381 10.0981 26.2381C10.1809 26.2381 10.1809 26.2381 10.2637 26.2381C10.3465 26.2381 10.512 26.2381 10.5948 26.3209C10.6775 26.3209 10.7603 26.3209 10.7603 26.4037C10.8431 26.4037 10.9258 26.4864 11.0914 26.4864C11.1742 26.4864 11.2569 26.5692 11.2569 26.5692C11.3397 26.652 11.4225 26.652 11.5052 26.7347C11.588 26.7347 11.588 26.8175 11.6708 26.8175C11.7536 26.9003 11.8363 26.9003 11.9191 26.9831C12.0019 26.9831 12.0019 27.0658 12.0846 27.0658C12.1674 27.1486 12.2502 27.2314 12.333 27.2314C12.4157 27.3141 12.4157 27.3141 12.4985 27.3969C12.5813 27.4797 12.664 27.5625 12.7468 27.6452C12.7468 27.728 12.8296 27.728 12.8296 27.8108L37.247 27.8108C37.247 27.728 37.3297 27.728 37.3297 27.6452C37.4125 27.5625 37.4953 27.4797 37.5781 27.3969C37.6608 27.3141 37.6608 27.3141 37.7436 27.2314C37.8264 27.1486 37.9091 27.0658 37.9919 27.0658C38.0747 26.9831 38.0747 26.9831 38.1574 26.9831C38.2402 26.9003 38.323 26.9003 38.4058 26.8175C38.4885 26.8175 38.4885 26.7347 38.5713 26.7347C38.6541 26.652 38.7368 26.652 38.8196 26.5692C38.9024 26.5692 38.9852 26.4864 38.9852 26.4864C39.0679 26.4864 39.1507 26.4037 39.3162 26.4037C39.399 26.4037 39.4818 26.4037 39.4818 26.3209C39.5646 26.3209 39.7301 26.2381 39.8129 26.2381C39.8956 26.2381 39.8956 26.2381 39.9784 26.2381C40.1439 26.2381 40.3095 26.2381 40.475 26.2381C40.6406 26.2381 40.8061 26.2381 40.9717 26.2381C41.0544 26.2381 41.0544 26.2381 41.1372 26.2381C41.22 26.2381 41.3855 26.2381 41.4683 26.3209C41.5511 26.3209 41.6338 26.3209 41.6338 26.4037C41.7166 26.4037 41.7994 26.4864 41.9649 26.4864C42.0477 26.4864 42.1304 26.5692 42.1304 26.5692C42.2132 26.652 42.296 26.652 42.3788 26.7347C42.4615 26.7347 42.4615 26.8175 42.5443 26.8175C42.6271 26.9003 42.7098 26.9003 42.7926 26.9831C42.8754 26.9831 42.8754 27.0658 42.9582 27.0658C43.0409 27.1486 43.1237 27.2314 43.2065 27.2314C43.2892 27.3141 43.2892 27.3141 43.372 27.3969C43.4548 27.4797 43.5376 27.5625 43.6203 27.6452C43.6203 27.728 43.7031 27.728 43.7031 27.8108L47.8416 27.8108L47.8416 19.0371L40.3923 19.0371C40.0612 19.0371 39.7301 18.706 39.7301 18.2093Z" fill-rule="nonzero" />
			<g id="Group">
				<path id="Vector" d="M42.7096 28.9696C42.6269 28.804 42.4613 28.6385 42.2958 28.473C41.9647 28.1419 41.6336 27.9763 41.2198 27.8108C40.9714 27.728 40.8059 27.728 40.5576 27.728C39.6471 27.728 38.8194 28.2247 38.4055 28.9696C38.1572 29.3834 38.0745 29.7973 38.0745 30.2112C38.0745 31.6183 39.1505 32.6943 40.5576 32.6943C41.9647 32.6943 43.0407 31.6183 43.0407 30.2112C43.0407 29.7973 42.9579 29.3834 42.7096 28.9696Z" fill-rule="nonzero" />
				<path id="Vector" d="M11.8363 28.9696C11.7536 28.804 11.588 28.6385 11.4225 28.473C11.0914 28.1419 10.7603 27.9763 10.3465 27.8108C10.0982 27.728 9.93261 27.728 9.6843 27.728C8.77382 27.728 7.94611 28.2247 7.53226 28.9696C7.28394 29.3834 7.20117 29.7973 7.20117 30.2112C7.20117 31.6183 8.27719 32.6943 9.6843 32.6943C11.0914 32.6943 12.1674 31.6183 12.1674 30.2112C12.1674 29.7973 12.0019 29.3834 11.8363 28.9696Z" fill-rule="nonzero" />
				<path id="Vector" d="M39.7301 18.2093L39.7301 13.657C39.7301 13.1603 40.0612 12.8292 40.5578 12.8292L43.2065 12.8292L41.7994 11.1738L34.7638 11.1738L34.7638 23.5895C34.7638 24.0861 34.4328 24.4172 33.9361 24.4172L1.65552 24.4172L1.65552 27.728L6.37345 27.728C6.45622 27.6452 6.45622 27.5624 6.539 27.5624C6.62177 27.4797 6.62177 27.3969 6.70454 27.3969C6.78731 27.3141 6.87008 27.3141 6.87008 27.2314C6.95285 27.1486 6.95285 27.1486 7.03562 27.0658C7.11839 26.9831 7.20116 26.9831 7.20116 26.9003C7.28393 26.8175 7.3667 26.8175 7.44947 26.7347C7.53225 26.652 7.61502 26.652 7.69779 26.652C7.78056 26.5692 7.86333 26.5692 7.9461 26.5692C8.02887 26.5692 8.11164 26.4864 8.19441 26.4864C8.27718 26.4864 8.35995 26.4037 8.44272 26.4037C8.5255 26.4037 8.60827 26.3209 8.60827 26.3209C8.69104 26.3209 8.85658 26.2381 8.93935 26.2381C9.02212 26.2381 9.02212 26.2381 9.10489 26.2381C9.27043 26.2381 9.43597 26.2381 9.60152 26.2381C9.76706 26.2381 9.9326 26.2381 10.0981 26.2381C10.1809 26.2381 10.1809 26.2381 10.2637 26.2381C10.3465 26.2381 10.512 26.2381 10.5948 26.3209C10.6775 26.3209 10.7603 26.3209 10.7603 26.4037C10.8431 26.4037 10.9258 26.4864 11.0914 26.4864C11.1742 26.4864 11.2569 26.5692 11.2569 26.5692C11.3397 26.652 11.4225 26.652 11.5052 26.7347C11.588 26.7347 11.588 26.8175 11.6708 26.8175C11.7536 26.9003 11.8363 26.9003 11.9191 26.9831C12.0019 26.9831 12.0019 27.0658 12.0846 27.0658C12.1674 27.1486 12.2502 27.2314 12.333 27.2314C12.4157 27.3141 12.4157 27.3141 12.4985 27.3969C12.5813 27.4797 12.664 27.5625 12.7468 27.6452C12.7468 27.728 12.8296 27.728 12.8296 27.8108L37.247 27.8108C37.247 27.728 37.3297 27.728 37.3297 27.6452C37.4125 27.5625 37.4953 27.4797 37.5781 27.3969C37.6608 27.3141 37.6608 27.3141 37.7436 27.2314C37.8264 27.1486 37.9091 27.0658 37.9919 27.0658C38.0747 26.9831 38.0747 26.9831 38.1574 26.9831C38.2402 26.9003 38.323 26.9003 38.4058 26.8175C38.4885 26.8175 38.4885 26.7347 38.5713 26.7347C38.6541 26.652 38.7368 26.652 38.8196 26.5692C38.9024 26.5692 38.9852 26.4864 38.9852 26.4864C39.0679 26.4864 39.1507 26.4037 39.3162 26.4037C39.399 26.4037 39.4818 26.4037 39.4818 26.3209C39.5646 26.3209 39.7301 26.2381 39.8129 26.2381C39.8956 26.2381 39.8956 26.2381 39.9784 26.2381C40.1439 26.2381 40.3095 26.2381 40.475 26.2381C40.6406 26.2381 40.8061 26.2381 40.9717 26.2381C41.0544 26.2381 41.0544 26.2381 41.1372 26.2381C41.22 26.2381 41.3855 26.2381 41.4683 26.3209C41.5511 26.3209 41.6338 26.3209 41.6338 26.4037C41.7166 26.4037 41.7994 26.4864 41.9649 26.4864C42.0477 26.4864 42.1304 26.5692 42.1304 26.5692C42.2132 26.652 42.296 26.652 42.3788 26.7347C42.4615 26.7347 42.4615 26.8175 42.5443 26.8175C42.6271 26.9003 42.7098 26.9003 42.7926 26.9831C42.8754 26.9831 42.8754 27.0658 42.9582 27.0658C43.0409 27.1486 43.1237 27.2314 43.2065 27.2314C43.2892 27.3141 43.2892 27.3141 43.372 27.3969C43.4548 27.4797 43.5376 27.5625 43.6203 27.6452C43.6203 27.728 43.7031 27.728 43.7031 27.8108L47.8416 27.8108L47.8416 19.0371L40.3923 19.0371C40.0612 19.0371 39.7301 18.706 39.7301 18.2093Z" fill-rule="nonzero" />
				<path id="Vector" d="M41.3853 17.3818L47.0964 17.3818L44.6133 14.4849L41.3853 14.4849L41.3853 17.3818Z" fill-rule="nonzero" />
				<path id="Vector" d="M49.4969 17.7129L42.8753 9.84964C42.7097 9.6841 42.4614 9.51855 42.2131 9.51855L33.1083 9.51855L33.1083 22.7619L0 22.7619L0 28.5558C0 29.0525 0.331083 29.3835 0.827708 29.3835L5.62842 29.3835C5.54564 29.6319 5.54564 29.9629 5.54564 30.2113C5.54564 32.5288 7.3666 34.3498 9.68419 34.3498C12.0018 34.3498 13.8227 32.5288 13.8227 30.2113C13.8227 29.9629 13.8227 29.6319 13.74 29.3835L36.5019 29.3835C36.4192 29.6319 36.4192 29.9629 36.4192 30.2113C36.4192 32.5288 38.2401 34.3498 40.5577 34.3498C42.8753 34.3498 44.6962 32.5288 44.6962 30.2113C44.6962 29.9629 44.6962 29.6319 44.6135 29.3835L48.8348 29.3835C49.3314 29.3835 49.6625 29.0525 49.6625 28.5558L49.6625 18.2923L49.6625 18.2095C49.6625 18.0439 49.5797 17.8784 49.4969 17.7129ZM47.0966 17.3818L41.3854 17.3818L41.3854 14.4848L44.6135 14.4848L47.0966 17.3818ZM9.68419 32.6944C8.27708 32.6944 7.20106 31.6184 7.20106 30.2113C7.20106 29.7974 7.28383 29.3836 7.53214 28.9697C7.946 28.2248 8.77371 27.7281 9.68419 27.7281C9.9325 27.7281 10.098 27.7281 10.3464 27.8109C10.7602 27.8937 11.1741 28.142 11.4224 28.4731C11.5879 28.6386 11.6707 28.8042 11.8362 28.9697C12.0845 29.3836 12.1673 29.7974 12.1673 30.2113C12.1673 31.6184 11.0085 32.6944 9.68419 32.6944ZM40.5577 32.6944C39.1506 32.6944 38.0746 31.6184 38.0746 30.2113C38.0746 29.7974 38.1573 29.3836 38.4057 28.9697C38.8195 28.2248 39.6472 27.7281 40.5577 27.7281C40.806 27.7281 40.9715 27.7281 41.2199 27.8109C41.6337 27.8937 42.0476 28.142 42.2959 28.4731C42.4614 28.6386 42.5442 28.8042 42.7097 28.9697C42.9581 29.3836 43.0408 29.7974 43.0408 30.2113C43.0408 31.6184 41.9648 32.6944 40.5577 32.6944ZM48.0071 27.7281L43.8685 27.7281C43.8685 27.6454 43.7858 27.6454 43.7858 27.5626C43.703 27.4798 43.6202 27.3971 43.5374 27.3143C43.4547 27.2315 43.4547 27.2315 43.3719 27.1487C43.2891 27.066 43.2064 26.9832 43.1236 26.9832C43.0408 26.9004 43.0408 26.9004 42.9581 26.9004C42.8753 26.8177 42.7925 26.8177 42.7097 26.7349C42.627 26.7349 42.627 26.6521 42.5442 26.6521C42.4614 26.5693 42.3787 26.5693 42.2959 26.4866C42.2131 26.4866 42.1303 26.4038 42.1303 26.4038C42.0476 26.4038 41.9648 26.321 41.7993 26.321C41.7165 26.321 41.6337 26.321 41.6337 26.2383C41.5509 26.2383 41.3854 26.1555 41.3026 26.1555C41.2199 26.1555 41.2199 26.1555 41.1371 26.1555C40.9715 26.1555 40.806 26.1555 40.6405 26.1555C40.4749 26.1555 40.3094 26.1555 40.1438 26.1555C40.0611 26.1555 40.0611 26.1555 39.9783 26.1555C39.8955 26.1555 39.73 26.1555 39.6472 26.2383C39.5644 26.2383 39.4817 26.2383 39.4817 26.321C39.3989 26.321 39.3161 26.4038 39.1506 26.4038C39.0678 26.4038 38.9851 26.4866 38.9851 26.4866C38.9023 26.5693 38.8195 26.5693 38.7367 26.6521C38.654 26.6521 38.654 26.7349 38.5712 26.7349C38.4884 26.8177 38.4057 26.8177 38.3229 26.9004C38.2401 26.9004 38.2401 26.9832 38.1573 26.9832C38.0746 27.066 37.9918 27.1487 37.909 27.1487C37.8263 27.2315 37.8263 27.2315 37.7435 27.3143C37.6607 27.3971 37.5779 27.4798 37.4952 27.5626C37.4952 27.6454 37.4124 27.6454 37.4124 27.7281L12.995 27.7281C12.995 27.6454 12.9122 27.6454 12.9122 27.5626C12.8295 27.4798 12.7467 27.3971 12.6639 27.3143C12.5812 27.2315 12.5812 27.2315 12.4984 27.1487C12.4156 27.066 12.3329 26.9832 12.2501 26.9832C12.1673 26.9004 12.1673 26.9004 12.0845 26.9004C12.0018 26.8177 11.919 26.8177 11.8362 26.7349C11.7535 26.7349 11.7535 26.6521 11.6707 26.6521C11.5879 26.5693 11.5051 26.5693 11.4224 26.4866C11.3396 26.4866 11.2568 26.4038 11.2568 26.4038C11.1741 26.4038 11.0913 26.321 10.9257 26.321C10.843 26.321 10.7602 26.321 10.7602 26.2383C10.6774 26.2383 10.5119 26.1555 10.4291 26.1555C10.3464 26.1555 10.3464 26.1555 10.2636 26.1555C10.098 26.1555 9.9325 26.1555 9.76696 26.1555C9.60141 26.1555 9.43587 26.1555 9.27033 26.1555C9.18756 26.1555 9.18756 26.1555 9.10479 26.1555C9.02202 26.1555 8.85648 26.1555 8.77371 26.2383C8.69094 26.2383 8.60816 26.2383 8.60816 26.321C8.52539 26.321 8.44262 26.4038 8.35985 26.4038C8.27708 26.4038 8.19431 26.4866 8.11154 26.4866C8.02877 26.4866 7.946 26.5693 7.86323 26.5693C7.78046 26.5693 7.69769 26.6521 7.61491 26.6521C7.53214 26.7349 7.44937 26.7349 7.3666 26.8177C7.28383 26.9004 7.20106 26.9004 7.20106 26.9832C7.11829 27.066 7.11829 27.066 7.03552 27.1487C6.95275 27.2315 6.86998 27.2315 6.86998 27.3143C6.62167 27.3971 6.62167 27.4798 6.53889 27.5626C6.45612 27.6454 6.45612 27.7281 6.37335 27.7281L1.65542 27.7281L1.65542 24.4173L33.936 24.4173C34.4327 24.4173 34.7637 24.0862 34.7637 23.5896L34.7637 11.174L41.7993 11.174L43.2064 12.8294L40.5577 12.8294C40.0611 12.8294 39.73 13.1605 39.73 13.6571L39.73 18.2095C39.73 18.7061 40.0611 19.0372 40.5577 19.0372L48.0071 19.0372L48.0071 27.7281Z" fill="rgb(78.4081,157.394,211.438)" fill-rule="nonzero" />
			</g>
		</g>
		<path id="Vector" d="M28.3078 6.70444C27.5628 2.81421 24.1692 0 20.1135 0L13.6574 0C9.68435 0 6.29075 2.81421 5.46304 6.70444C4.46979 7.03552 3.72485 7.946 3.72485 9.02202C3.72485 9.68418 3.97317 10.2636 4.38702 10.6774C3.97317 11.0913 3.72485 11.6707 3.72485 12.3328C3.72485 13.4089 4.46979 14.4021 5.46304 14.6504C6.20798 18.5407 9.60158 21.3549 13.6574 21.3549L20.1135 21.3549C24.0865 21.3549 27.4801 18.5407 28.3078 14.6504C29.301 14.3194 30.046 13.4089 30.046 12.3328C30.046 11.6707 29.7977 11.0913 29.3838 10.6774C29.7977 10.2636 30.046 9.68418 30.046 9.02202C30.1287 7.946 29.3838 7.03552 28.3078 6.70444ZM13.6574 1.65542L20.1135 1.65542C23.176 1.65542 25.7419 3.72469 26.5696 6.62166L26.2385 6.62166L26.073 6.45612C25.7419 5.9595 25.1625 5.79396 24.5831 5.79396L24.0865 5.79396C23.5071 5.79396 22.9277 6.04227 22.5138 6.45612C22.4311 6.53889 22.2655 6.62166 22.1 6.62166L21.6033 6.62166C21.4378 6.62166 21.2723 6.53889 21.1895 6.45612C20.7756 5.9595 20.1962 5.79396 19.6168 5.79396L19.1202 5.79396C18.5408 5.79396 17.9614 6.04227 17.5476 6.45612C17.4648 6.53889 17.2993 6.62166 17.1337 6.62166L16.6371 6.62166C16.4716 6.62166 16.306 6.53889 16.2232 6.45612C15.8922 5.9595 15.3128 5.79396 14.7334 5.79396L14.2367 5.79396C13.6574 5.79396 13.078 6.04227 12.6641 6.45612C12.5813 6.53889 12.4158 6.62166 12.2502 6.62166L11.7536 6.62166C11.5881 6.62166 11.4225 6.53889 11.3398 6.45612C10.9259 5.9595 10.3465 5.79396 9.76712 5.79396L9.2705 5.79396C8.6911 5.79396 8.11171 6.04227 7.69785 6.45612L7.53231 6.53889L7.284 6.53889C8.02894 3.72469 10.6776 1.65542 13.6574 1.65542ZM6.20798 8.19431L8.19448 8.19431L8.85664 7.53214C9.02218 7.44937 9.10496 7.3666 9.2705 7.3666L9.76712 7.3666C9.93266 7.3666 10.0982 7.44937 10.181 7.53214C10.5948 7.946 11.1742 8.19431 11.7536 8.19431L12.2502 8.19431C12.8296 8.19431 13.409 7.946 13.8229 7.53214C13.9057 7.44937 14.0712 7.3666 14.2367 7.3666L14.7334 7.3666C14.8989 7.3666 15.0645 7.44937 15.1472 7.53214C15.5611 7.946 16.1405 8.19431 16.7199 8.19431L17.2165 8.19431C17.7959 8.19431 18.3753 7.946 18.7891 7.53214C18.8719 7.44937 19.0375 7.3666 19.1202 7.3666L19.6168 7.3666C19.7824 7.3666 19.9479 7.44937 20.0307 7.53214C20.4446 7.946 21.024 8.19431 21.6033 8.19431L22.1 8.19431C22.6794 8.19431 23.2588 7.946 23.6726 7.53214C23.7554 7.44937 23.9209 7.3666 24.0865 7.3666L24.5831 7.3666C24.7486 7.3666 24.9142 7.44937 24.997 7.53214L25.6591 8.19431L27.6456 8.19431C28.0595 8.19431 28.4733 8.52539 28.4733 9.02202C28.4733 9.51864 28.1422 9.84973 27.6456 9.84973L6.20798 9.84973C5.79412 9.84973 5.38027 9.51864 5.38027 9.02202C5.38027 8.52539 5.79412 8.19431 6.20798 8.19431ZM20.1962 19.6995L13.7401 19.6995C10.6776 19.6995 8.11171 17.6302 7.284 14.7332L26.6524 14.7332C25.8247 17.713 23.2588 19.6995 20.1962 19.6995ZM27.6456 13.1606L6.20798 13.1606C5.79412 13.1606 5.38027 12.8295 5.38027 12.3328C5.38027 11.8362 5.71135 11.5051 6.20798 11.5051L27.5628 11.5051C27.9767 11.5051 28.3906 11.8362 28.3906 12.3328C28.3906 12.8295 28.0595 13.1606 27.6456 13.1606Z" fill="rgb(78.4081,157.394,211.438)" fill-rule="nonzero" />
	</g>
</svg>
